<?xml version="1.0" encoding="UTF-8" standalone="no"?>
<svg width="350px" height="350px" viewBox="0 0 350 350" version="1.1" xmlns="http://www.w3.org/2000/svg" xmlns:xlink="http://www.w3.org/1999/xlink" xmlns:sketch="http://www.bohemiancoding.com/sketch/ns">
    <!-- Generator: Sketch 3.3.3 (12072) - http://www.bohemiancoding.com/sketch -->
    <title>map</title>
    <desc>Created with Sketch.</desc>
    <defs></defs>
    <g id="Page-1" stroke="none" stroke-width="1" fill="none" fill-rule="evenodd" sketch:type="MSPage">
        <g id="map" sketch:type="MSArtboardGroup">
            <path id="Shape" fill="#FF0000" sketch:type="MSShapeGroup"></path>
            <path d="M164.385254,294.429031 C155.231003,287.972368 168.370415,281.039254 164.943353,278.933038 C156.538753,273.767709 135.866116,261.123776 106.844246,247.941055 C102.59291,246.009954 98.3334186,243.956484 94.1353062,241.812976 C65.0112641,226.942576 38.841236,207.738858 38.841236,194.996416 C38.841236,178.955749 45.9351511,165.187692 57.1497386,151.091106 C64.8942764,141.356326 78.0737461,131.68623 78.0737439,120.099121 C78.0737408,103.311797 45.5859937,50.7623337 45.5859937,50.7623337 C43.3054678,46.9781676 44.0483819,41.4403922 47.2758896,38.4085588 C47.2758896,38.4085588 86.0148562,0.891996075 97.6899961,0.00518302667 C109.365136,-0.881630022 101.921747,24.1526302 114.690749,32.2884996 C124.926305,38.8101643 142.147717,28.2608638 147.384503,37.4538302 C151.689948,45.0118633 176.155006,55.5324888 176.155006,55.5324888 C176.155006,55.5324888 207.73604,63.2804848 224.541763,63.2804848 C236.311515,63.2804848 238.417762,48.4774934 249.389017,43.9104948 C264.872213,37.4653127 294.046155,47.629674 304.314525,55.5324888 C309.775974,59.7357682 295.448179,63.153755 288.621522,73.6111461 C284.266164,80.2828863 280.581428,93.1241831 280.581428,93.1241831 C279.243845,97.3242804 278.096173,104.311102 278.028632,108.728504 C278.028632,108.728504 276.346574,191.709671 280.775021,209.201076 C282.937967,217.744241 293.791592,229.026649 293.791592,229.026649 C296.714245,232.340954 296.156695,237.106973 292.580303,239.70237 C292.580303,239.70237 272.633047,253.474266 261.158768,266.019713 C252.776066,275.184972 248.981804,285.648763 246.773516,290.555033 C241.542515,302.177027 224.697988,330.182512 224.697988,330.182512 C222.444956,333.97146 217.784555,334.868369 214.27005,332.174131 C214.27005,332.174131 173.539506,300.885695 164.385254,294.429031 Z" id="Rectangle-2" stroke="#D8D8D8" stroke-width="3" sketch:type="MSShapeGroup"></path>
            <ellipse id="Oval-1" fill="#E29968" sketch:type="MSShapeGroup" cx="140.499607" cy="230.753979" rx="6.60119291" ry="6.51832138"></ellipse>
            <path d="M109.5,304.500002 L137.19901,235.316804" id="Line" stroke="#E29968" stroke-linecap="square" sketch:type="MSShapeGroup"></path>
            <text id="DALIAH-VLACH" sketch:type="MSTextLayer" font-family="ITC Berkeley Oldstyle Std" font-size="25" font-weight="313" fill="#E29968">
                <tspan x="0" y="330.167572">DALIAH VLACH</tspan>
            </text>
        </g>
    </g>
</svg>